<svg width="19" height="17" viewBox="0 0 19 17" fill="none" xmlns="http://www.w3.org/2000/svg">
<path d="M9.5 16.8333C8.45833 16.8333 7.48264 16.6354 6.57292 16.2396C5.66319 15.8437 4.87153 15.309 4.19792 14.6354C3.52431 13.9618 2.98958 13.1701 2.59375 12.2604C2.19792 11.3507 2 10.375 2 9.33333C2 8.29167 2.19792 7.31597 2.59375 6.40625C2.98958 5.49653 3.52431 4.70486 4.19792 4.03125C4.87153 3.35764 5.66319 2.82292 6.57292 2.42708C7.48264 2.03125 8.45833 1.83333 9.5 1.83333C10.5417 1.83333 11.5174 2.03125 12.4271 2.42708C13.3368 2.82292 14.1285 3.35764 14.8021 4.03125C15.4757 4.70486 16.0104 5.49653 16.4063 6.40625C16.8021 7.31597 17 8.29167 17 9.33333C17 10.375 16.8021 11.3507 16.4063 12.2604C16.0104 13.1701 15.4757 13.9618 14.8021 14.6354C14.1285 15.309 13.3368 15.8437 12.4271 16.2396C11.5174 16.6354 10.5417 16.8333 9.5 16.8333ZM11.8333 12.8333L13 11.6667L10.3333 9V5.16667H8.66667V9.66667L11.8333 12.8333ZM4.16667 0.458332L5.33333 1.625L1.79167 5.16667L0.625 4L4.16667 0.458332ZM14.8333 0.458332L18.375 4L17.2083 5.16667L13.6667 1.625L14.8333 0.458332ZM9.5 15.1667C11.125 15.1667 12.5035 14.6007 13.6354 13.4687C14.7674 12.3368 15.3333 10.9583 15.3333 9.33333C15.3333 7.70833 14.7674 6.32986 13.6354 5.19792C12.5035 4.06597 11.125 3.5 9.5 3.5C7.875 3.5 6.49653 4.06597 5.36458 5.19792C4.23264 6.32986 3.66667 7.70833 3.66667 9.33333C3.66667 10.9583 4.23264 12.3368 5.36458 13.4687C6.49653 14.6007 7.875 15.1667 9.5 15.1667Z" fill="#101010"/>
</svg>
