<svg width="19" height="18" viewBox="0 0 19 18" fill="none" xmlns="http://www.w3.org/2000/svg">
<path d="M9.5 17.3333C8.45833 17.3333 7.48264 17.1353 6.57292 16.7395C5.66319 16.3437 4.87153 15.8089 4.19792 15.1353C3.52431 14.4617 2.98958 13.6701 2.59375 12.7603C2.19792 11.8506 2 10.8749 2 9.83325C2 8.79158 2.19792 7.81589 2.59375 6.90617C2.98958 5.99645 3.52431 5.20478 4.19792 4.53117C4.87153 3.85756 5.66319 3.32283 6.57292 2.927C7.48264 2.53117 8.45833 2.33325 9.5 2.33325C10.5417 2.33325 11.5174 2.53117 12.4271 2.927C13.3368 3.32283 14.1285 3.85756 14.8021 4.53117C15.4757 5.20478 16.0104 5.99645 16.4063 6.90617C16.8021 7.81589 17 8.79158 17 9.83325C17 10.8749 16.8021 11.8506 16.4063 12.7603C16.0104 13.6701 15.4757 14.4617 14.8021 15.1353C14.1285 15.8089 13.3368 16.3437 12.4271 16.7395C11.5174 17.1353 10.5417 17.3333 9.5 17.3333ZM11.8333 13.3333L13 12.1666L10.3333 9.49992V5.66658H8.66667V10.1666L11.8333 13.3333ZM4.16667 0.958252L5.33333 2.12492L1.79167 5.66658L0.625 4.49992L4.16667 0.958252ZM14.8333 0.958252L18.375 4.49992L17.2083 5.66658L13.6667 2.12492L14.8333 0.958252ZM9.5 15.6666C11.125 15.6666 12.5035 15.1006 13.6354 13.9687C14.7674 12.8367 15.3333 11.4583 15.3333 9.83325C15.3333 8.20825 14.7674 6.82978 13.6354 5.69783C12.5035 4.56589 11.125 3.99992 9.5 3.99992C7.875 3.99992 6.49653 4.56589 5.36458 5.69783C4.23264 6.82978 3.66667 8.20825 3.66667 9.83325C3.66667 11.4583 4.23264 12.8367 5.36458 13.9687C6.49653 15.1006 7.875 15.6666 9.5 15.6666Z" fill="#101010"/>
</svg>
